<?xml version="1.0" standalone="no"?>
<!DOCTYPE svg PUBLIC "-//W3C//DTD SVG 1.1//EN" "http://www.w3.org/Graphics/SVG/1.1/DTD/svg11.dtd">
<!--Generator: Xara Designer (www.xara.com), SVG filter version: 6.1.0.16-->
<svg stroke-width="0.501" stroke-linejoin="bevel" fill-rule="evenodd" xmlns:xlink="http://www.w3.org/1999/xlink" xmlns="http://www.w3.org/2000/svg" version="1.1" overflow="visible" width="203.76pt" height="224.64pt" viewBox="0 0 203.76 224.64">
 <defs>
	</defs>
 <g id="Document" fill="none" stroke="black" font-family="Times New Roman" font-size="16" transform="scale(1 -1)">
  <g id="Spread" transform="translate(0 -224.64)">
   <g id="Layer 1">
    <g id="Group" fill="#191919" stroke-linejoin="round" stroke-linecap="round" stroke="none" stroke-width="0.857" stroke-miterlimit="79.8403193612775">
     <g id="Group_1">
      <g id="Group_2">
       <path d="M 19.439,-0.013 L 50.582,31.143 L 58.81,31.143 L 58.81,31.157 L 144.42,31.157 L 173.387,31.143 L 173.387,31.157 L 173.415,60.124 L 173.387,60.124 L 173.387,112.225 L 144.42,83.271 L 144.42,60.124 L 79.59,60.124 L 203.742,184.303 L 203.742,-0.013 L 19.439,-0.013 Z M 0.019,21.542 L 0.019,147.353 L 77.265,224.599 L 118.825,224.585 L 29.829,135.562 L 29.829,60.124 L 29.801,60.124 L 29.801,51.326 L 0.019,21.542 Z M 58.81,80.32 L 58.81,123.567 L 159.774,224.545 L 202.994,224.517 L 58.81,80.32 Z M 0.019,188.315 L 0.019,224.653 L 36.33,224.613 L 0.019,188.315 Z" marker-start="none" marker-end="none"/>
      </g>
     </g>
    </g>
   </g>
  </g>
 </g>
</svg>
