<?xml version="1.0" standalone="no"?>
<!DOCTYPE svg PUBLIC "-//W3C//DTD SVG 1.1//EN" "http://www.w3.org/Graphics/SVG/1.1/DTD/svg11.dtd">
<!--Generator: Xara Designer (www.xara.com), SVG filter version: 6.1.0.16-->
<svg stroke-width="0.501" stroke-linejoin="bevel" fill-rule="evenodd" xmlns:xlink="http://www.w3.org/1999/xlink" xmlns="http://www.w3.org/2000/svg" version="1.1" overflow="visible" width="612pt" height="674.64pt" viewBox="0 0 612 674.64">
 <defs>
	</defs>
 <g id="Document" fill="none" stroke="black" font-family="Times New Roman" font-size="16" transform="scale(1 -1)">
  <g id="Spread" transform="translate(0 -674.64)">
   <g id="Layer 1">
    <path d="M 58.341,-0.139 L 151.898,93.459 L 176.615,93.459 L 176.615,93.501 L 433.792,93.501 L 520.812,93.459 L 520.812,93.501 L 520.895,180.52 L 520.812,180.52 L 520.812,337.035 L 433.792,250.054 L 433.792,180.52 L 239.039,180.52 L 612,553.561 L 612,-0.139 L 58.341,-0.139 Z M 0,64.615 L 0,442.561 L 232.054,674.615 L 356.905,674.573 L 89.553,407.141 L 89.553,180.52 L 89.47,180.52 L 89.47,154.088 L 0,64.615 Z M 176.615,241.188 L 176.615,371.107 L 479.917,674.452 L 609.754,674.369 L 176.615,241.188 Z M 0,565.614 L 0,674.778 L 109.081,674.656 L 0,565.614 Z" fill="#ffffff" stroke-linecap="round" stroke="none" stroke-linejoin="round" stroke-width="2.573" marker-start="none" marker-end="none" stroke-miterlimit="79.8403193612775"/>
   </g>
  </g>
 </g>
</svg>
